<?xml version="1.0" encoding="UTF-8" standalone="no"?>
<!DOCTYPE svg PUBLIC "-//W3C//DTD SVG 1.1//EN"
 "http://www.w3.org/Graphics/SVG/1.1/DTD/svg11.dtd">
<!-- Generated by graphviz version 7.1.0 (20230122.1345)
 -->
<!-- Pages: 1 -->
<svg width="298pt" height="233pt"
 viewBox="0.00 0.00 297.76 232.91" xmlns="http://www.w3.org/2000/svg" xmlns:xlink="http://www.w3.org/1999/xlink">
<g id="graph0" class="graph" transform="scale(1 1) rotate(0) translate(4 228.91)">
<polygon fill="white" stroke="none" points="-4,4 -4,-228.91 293.76,-228.91 293.76,4 -4,4"/>
<g id="clust1" class="cluster">
<title>cluster332</title>
<path fill="none" stroke="black" d="M98.88,-8C98.88,-8 190.88,-8 190.88,-8 196.88,-8 202.88,-14 202.88,-20 202.88,-20 202.88,-109.95 202.88,-109.95 202.88,-115.95 196.88,-121.95 190.88,-121.95 190.88,-121.95 98.88,-121.95 98.88,-121.95 92.88,-121.95 86.88,-115.95 86.88,-109.95 86.88,-109.95 86.88,-20 86.88,-20 86.88,-14 92.88,-8 98.88,-8"/>
<text text-anchor="middle" x="180.88" y="-15.8" font-family="Times,serif" font-size="14.00">332</text>
</g>
<!-- beta -->
<g id="node1" class="node">
<title>beta</title>
<ellipse fill="none" stroke="black" cx="67.88" cy="-187.43" rx="67.76" ry="37.45"/>
<text text-anchor="middle" x="67.88" y="-198.73" font-family="Times,serif" font-size="14.00">beta</text>
<text text-anchor="middle" x="67.88" y="-183.73" font-family="Times,serif" font-size="14.00">~</text>
<text text-anchor="middle" x="67.88" y="-168.73" font-family="Times,serif" font-size="14.00">LogNormal</text>
</g>
<!-- I -->
<g id="node3" class="node">
<title>I</title>
<ellipse fill="lightgrey" stroke="black" cx="144.88" cy="-76.48" rx="50.41" ry="37.45"/>
<text text-anchor="middle" x="144.88" y="-87.78" font-family="Times,serif" font-size="14.00">I</text>
<text text-anchor="middle" x="144.88" y="-72.78" font-family="Times,serif" font-size="14.00">~</text>
<text text-anchor="middle" x="144.88" y="-57.78" font-family="Times,serif" font-size="14.00">Poisson</text>
</g>
<!-- beta&#45;&gt;I -->
<g id="edge1" class="edge">
<title>beta&#45;&gt;I</title>
<path fill="none" stroke="black" d="M92.03,-152.26C99.4,-141.83 107.59,-130.25 115.28,-119.37"/>
<polygon fill="black" stroke="black" points="118.08,-121.46 120.99,-111.28 112.36,-117.42 118.08,-121.46"/>
</g>
<!-- gamma -->
<g id="node2" class="node">
<title>gamma</title>
<ellipse fill="none" stroke="black" cx="221.88" cy="-187.43" rx="67.76" ry="37.45"/>
<text text-anchor="middle" x="221.88" y="-198.73" font-family="Times,serif" font-size="14.00">gamma</text>
<text text-anchor="middle" x="221.88" y="-183.73" font-family="Times,serif" font-size="14.00">~</text>
<text text-anchor="middle" x="221.88" y="-168.73" font-family="Times,serif" font-size="14.00">LogNormal</text>
</g>
<!-- gamma&#45;&gt;I -->
<g id="edge2" class="edge">
<title>gamma&#45;&gt;I</title>
<path fill="none" stroke="black" d="M197.73,-152.26C190.36,-141.83 182.18,-130.25 174.49,-119.37"/>
<polygon fill="black" stroke="black" points="177.4,-117.42 168.77,-111.28 171.68,-121.46 177.4,-117.42"/>
</g>
</g>
</svg>
